<?xml version="1.0" encoding="utf-8"?>
<!-- Generator: Adobe Illustrator 27.5.0, SVG Export Plug-In . SVG Version: 6.00 Build 0)  -->
<svg version="1.1" id="Ñëîé_1" xmlns="http://www.w3.org/2000/svg" xmlns:xlink="http://www.w3.org/1999/xlink" x="0px" y="0px"
	 viewBox="0 0 2000 2000" style="enable-background:new 0 0 2000 2000;" xml:space="preserve">
<g>
	<rect id="_x31_4" x="0.001" y="0" style="fill:#BFC8EF;" width="1999.999" height="1999.999"/>
	<g id="_x31_3">
		<polygon style="fill:#8A9EDD;" points="2000,0 2000,0 1299.352,0 1299.352,0 700.648,0 700.648,0 0,0 0,738.734 700.648,738.734 
			700.648,738.734 1299.352,738.734 1299.352,738.734 1997.164,738.734 		"/>
		<path style="fill:#D1E0F2;" d="M362.002,50.49v637.75h291.918V50.49H362.002z M420.415,434.473h-23.352V304.261h23.352V434.473z"
			/>
		<path style="fill:#D1E0F2;" d="M46.735,50.49v637.75h291.909V50.49H46.735z M303.585,434.473h-23.352V304.261h23.352V434.473z"/>
		<path style="fill:#D1E0F2;" d="M1661.349,50.49v637.75h291.918V50.49H1661.349z M1719.767,434.473h-23.352V304.261h23.352V434.473
			z"/>
		<path style="fill:#D1E0F2;" d="M1346.082,50.49v637.75H1638V50.49H1346.082z M1602.937,434.473h-23.352V304.261h23.352V434.473z"
			/>
		<path style="fill:#D1E0F2;" d="M709.132,49.27v307.47h590.224V49.27H709.132z M1064.495,320.254H943.986v-24.955h120.509V320.254z
			"/>
		<path style="fill:#D1E0F2;" d="M709.132,382v307.46h590.224V382H709.132z M1064.495,443.435H943.986v-24.955h120.509V443.435z"/>
	</g>
	<g id="_x31_2">
		<polygon style="fill:#8A9EDD;" points="1901.387,861.821 1901.387,878.193 1169.221,878.193 1169.221,861.821 1150.191,861.821 
			1150.191,913.647 1169.221,913.647 1169.221,897.223 1901.387,897.223 1901.387,913.647 1920.417,913.647 1920.417,861.821 		"/>
		<path style="fill:#9358E0;" d="M1443.245,885.421v268.845c0,0-24.286,5.12-56.763,5.12c-27.212,0-51.516-5.12-51.516-5.12v-22.963
			c0,0-7.875,1.885-19.329,3.543c-8.953,1.287-20.072,2.438-31.326,2.438c-25.944,0-49.849-5.981-49.849-5.981V885.421
			c0-15.586,12.641-28.227,28.227-28.227h152.328C1430.613,857.194,1443.245,869.835,1443.245,885.421z"/>
		<path style="fill:#6583CE;" d="M1792.597,983.143c0-6.253,2.557-11.882,6.638-15.806c2.324-2.235,3.63-5.324,3.539-8.547
			l-0.689-24.566c2.268,1.661,5.063,2.643,8.089,2.643h0c2.769,0,5.344-0.824,7.5-2.236l-0.9,32.086v107.758
			c0,2.098-1.627,3.798-3.634,3.798c-11.346,0-20.544-19.522-20.544-51.443V983.143z"/>
		<path style="fill:#1D3F70;" d="M1810.174,936.867c-3.026,0-5.821-0.982-8.089-2.643c-3.405-2.494-5.619-6.52-5.619-11.064V811.848
			c0-7.57,6.137-13.708,13.708-13.708h0c7.57,0,13.708,6.137,13.708,13.708V923.16c0,4.801-2.471,9.024-6.208,11.472
			C1815.519,936.044,1812.943,936.867,1810.174,936.867L1810.174,936.867z"/>
		<path style="fill:#6583CE;" d="M1519.661,998.57c0-8.218,2.557-15.615,6.638-20.772c2.324-2.937,3.63-6.997,3.539-11.232
			l-0.689-32.282c2.268,2.182,5.063,3.474,8.089,3.474h0c2.769,0,5.344-1.082,7.5-2.938l-0.9,42.166v141.607
			c0,2.757-1.627,4.991-3.634,4.991c-11.346,0-20.544-25.654-20.544-67.603V998.57z"/>
		<path style="fill:#1D3F70;" d="M1537.238,950.671c-3.026,0-5.822-0.982-8.089-2.643c-3.405-2.494-5.619-6.52-5.619-11.064V825.652
			c0-7.57,6.137-13.708,13.708-13.708h0c7.57,0,13.708,6.137,13.708,13.708v111.312c0,4.801-2.471,9.024-6.208,11.472
			C1542.583,949.847,1540.007,950.671,1537.238,950.671L1537.238,950.671z"/>
		<path style="fill:#6583CE;" d="M1644.239,1040.374c1.671,7.257,2.116,14.742,1.449,22.158l-3.24,46.434
			c-0.057,0.819-1.262,0.815-1.312-0.004c-1.119-18.3-3.376-55.293-3.376-55.293c-0.057-0.751-1.159-0.751-1.215,0l-3.382,55.463
			c-0.046,0.755-1.157,0.756-1.203,0.002c-1.115-18.239-3.386-55.465-3.386-55.465c-0.057-0.751-1.159-0.751-1.215,0l-3.382,55.463
			c-0.046,0.755-1.157,0.756-1.203,0.002c-1.115-18.239-3.386-55.465-3.386-55.465c-0.057-0.751-1.159-0.751-1.215,0
			c0,0-2.257,36.993-3.376,55.293c-0.05,0.819-1.255,0.823-1.312,0.004l-3.24-46.434c-0.667-7.417-0.221-14.902,1.449-22.158
			c1.466-6.367,3.563-11.782,6.089-15.758c2.237-3.523,3.429-7.611,3.313-11.782l-0.933-33.26c2.216,1.534,4.903,2.436,7.803,2.436
			c2.899,0,5.587-0.901,7.803-2.436l-0.933,33.26c-0.116,4.171,1.076,8.259,3.313,11.782
			C1640.676,1028.592,1642.773,1034.007,1644.239,1040.374z"/>
		<path style="fill:#1D3F70;" d="M1620.164,979.573c-3.577-2.477-5.921-6.608-5.921-11.288V856.842
			c0-7.58,6.144-13.724,13.724-13.724c7.579,0,13.724,6.144,13.724,13.724v111.443c0,4.68-2.344,8.811-5.921,11.288
			c-2.216,1.534-4.903,2.436-7.803,2.436C1625.068,982.009,1622.38,981.108,1620.164,979.573z"/>
		<path style="fill:#6583CE;" d="M1713.859,1014.054c3.083-2.282,4.896-5.892,4.788-9.726l-0.694-24.755
			c2.216,1.535,4.904,2.436,7.804,2.436l0,0c2.9,0,5.587-0.901,7.803-2.436l-0.694,24.755c-0.108,3.834,1.705,7.445,4.788,9.726
			c9.901,7.328,16.783,23.517,16.783,42.314c0,25.678-12.84,46.495-28.68,46.495c-15.839,0-28.68-20.816-28.68-46.495
			C1697.076,1037.571,1703.958,1021.382,1713.859,1014.054z"/>
		<path style="fill:#1D3F70;" d="M1725.756,982.009c-2.9,0-5.588-0.902-7.804-2.436c-3.576-2.477-5.92-6.608-5.92-11.287V856.842
			c0-7.58,6.144-13.724,13.724-13.724l0,0c7.579,0,13.724,6.144,13.724,13.724v111.443c0,4.68-2.344,8.81-5.921,11.288
			C1731.344,981.108,1728.656,982.009,1725.756,982.009L1725.756,982.009z"/>
		<path style="fill:#7640CC;" d="M1338.853,1008.371l-3.888,122.932c0,0-7.875,1.885-19.329,3.543L1338.853,1008.371z"/>
		<path style="fill:#7640CC;" d="M1297.116,857.194c0,0-22.327,51.75-23.047,132.467c0,0,12.964-87.094,47.534-132.467H1297.116z"/>
		<path style="fill:#7640CC;" d="M1393.625,857.194c0,0,4.682,110.789,7.023,222.485c0,0,15.761-112.292,16.973-222.485H1393.625z"
			/>
	</g>
	<g id="_x31_1">
		<rect x="0" y="1417.672" style="fill:#8A9EDD;" width="2000" height="582.327"/>
		<rect x="0" y="1451.647" style="fill:#BFC8EF;" width="2000" height="505.948"/>
	</g>
	<g id="_x31_0">
		<path style="fill:#EB5648;" d="M1618.336,1304.132L1618.336,1304.132c-10.357,0-18.754-8.396-18.754-18.754v-57.731
			c0-10.357,8.396-18.754,18.754-18.754h0c10.357,0,18.754,8.396,18.754,18.754v57.731
			C1637.089,1295.736,1628.693,1304.132,1618.336,1304.132z"/>
		<path style="fill:#FFFFFF;" d="M1654.329,1356.742L1654.329,1356.742l0-73.602c0-12.51-10.142-22.651-22.652-22.651h-26.683
			c-12.51,0-22.652,10.142-22.652,22.651v73.602h0c-18.162,0-32.885,14.723-32.885,32.885v363.996
			c0,8.249,30.838,14.936,68.878,14.936c38.041,0,68.878-6.687,68.878-14.936v-363.996
			C1687.214,1371.465,1672.491,1356.742,1654.329,1356.742z"/>
		<path style="fill:#F9B233;" d="M1564.956,1441.438v289.121c0,0.001,0,0.001,0,0.002c0,6.495,23.899,11.759,53.38,11.759
			c29.481,0,53.38-5.265,53.38-11.759v-289.123H1564.956z"/>
		<ellipse style="fill:#F39200;" cx="1618.336" cy="1441.695" rx="53.38" ry="11.759"/>
	</g>
	<g id="_x39_">
		<polygon style="fill:#E8C0A6;" points="1184.768,1745.323 533.045,1745.323 609.274,1500.648 1108.539,1500.648 		"/>
		<rect x="533.045" y="1745.323" style="fill:#D1A68F;" width="651.723" height="20"/>
	</g>
	<g id="_x38_">
		<path style="fill:#CE3932;" d="M681.367,888.167c-72.521,38.501-79.165,63.698-133.595,67.103c0,0-184.985,47.768-279.269,37.22
			c0,0-149.164-81.37-71.658-157.841c62.093-61.263,347.864-121.232,455.121-121.144
			C775.741,713.608,790.377,829.196,681.367,888.167z"/>
		<rect x="672.162" y="643.897" style="fill:#EA876C;" width="70.977" height="83.814"/>
		<path style="fill:#EB5648;" d="M933.804,1283.821c0,0-244.524,44.974-446.672-4.959c0,0-40.574-58.753,9.18-249.593
			c19.54-74.947,49.137-226.466,134.662-314.428c0,0,9.225-1.454,20.992-1.335c0,0-2.451-20.021,20.195-30.712
			c0,0,32.183,8.31,70.977-0.23c0,0,22.325,9.604,17.956,30.587c7.366-0.305,24.376,2.34,24.376,2.34
			C967.453,871.888,949.886,1240.549,933.804,1283.821z"/>
		<path style="fill:#F99370;" d="M824.164,537.694c-8.616,39.799-57.211,29.525-48.98-10.355
			C783.799,487.541,832.394,497.816,824.164,537.694z"/>
		<path style="fill:#F99370;" d="M586.699,537.694c8.616,39.799,57.211,29.525,48.98-10.355
			C627.064,487.541,578.469,497.816,586.699,537.694z"/>
		<path style="fill:#F99370;" d="M805.322,580.689c-5.543,133.267-219.268,113.729-198.18-20.1
			c2.917-26.541,12.42-44.189,16.877-86.499c10.314-97.927,149.474-103.139,161.983-0.732
			C790.917,513.756,805.635,543.539,805.322,580.689z"/>
		<path style="fill:#C16256;" d="M732.229,531.682c-3.205-6.086,6.428-10.98,9.452-4.801
			C744.886,532.967,735.254,537.86,732.229,531.682z"/>
		<path style="fill:#C16256;" d="M668.683,531.805c-3.205-6.086,6.427-10.98,9.452-4.801
			C681.34,533.089,671.708,537.982,668.683,531.805z"/>
		<path style="fill:#C16256;" d="M700.779,562.373c-9.706-0.116-24.792-6.659-12.523-15.282
			c10.022-5.428,17.375-26.182,17.45-26.392c0.812-2.458,4.687-1.13,3.785,1.324c-0.319,0.913-7.952,22.435-19.322,28.595
			c-7.859,4.813,8.518,9.474,15.27,7.093c1.062-0.34,2.185,0.242,2.524,1.297C708.535,562.612,703.29,562.104,700.779,562.373z"/>
		<path style="fill:#E57D61;" d="M639.975,467.879c48.08,22.329,103.236-50.376,132.684-17.039l3.605-20.365L720.2,404.174
			l-89.473,31.147L639.975,467.879z"/>
		<path style="fill:#8C4225;" d="M791.887,504.209c0,0-16.766-32.151-19.228-53.369c-2.462-21.219-30.958-24.918-54.366-8.306
			c-23.407,16.612-52.617,24.162-83.317,12.836c-30.7-11.326-50.562-57.869-19.334-85.324c30.919-27.183,63.08-6.001,90.895,4.53
			C742.434,388.169,832.621,360.752,791.887,504.209z"/>
		<path style="fill:#8C4225;" d="M619.951,502.681c0,0,25.099-28.434,26.61-66.187l-26.878-10.571
			C619.683,425.922,608.73,462.654,619.951,502.681z"/>
		<path style="fill:#C16256;" d="M813.99,545.632c-1.29,0.015-2.272-1.298-1.873-2.532c6.86-19.552-0.258-29.549-15.701-23.628
			c-2.341,0.974-3.816-2.762-1.428-3.649c16.32-6.675,29.721,3.666,20.875,28.422C815.606,545.089,814.83,545.632,813.99,545.632z"
			/>
		<path style="fill:#C16256;" d="M795.701,542.894c-6.087-0.485,5.512-19.26,20.373-20.266c1.07-0.055,2.013,0.746,2.085,1.826
			c0.071,1.08-0.745,2.013-1.825,2.085C801.132,528.11,799.298,542.388,795.701,542.894z"/>
		<path style="fill:#C16256;" d="M598.107,545.632c-0.84,0-1.616-0.544-1.873-1.388c-8.857-24.765,4.589-35.095,20.878-28.42
			c2.368,0.897,0.93,4.601-1.429,3.648c-13.975-5.736-23.097,2.956-15.702,23.629C600.38,544.331,599.395,545.651,598.107,545.632z"
			/>
		<path style="fill:#C16256;" d="M616.397,542.893c-3.554-0.469-5.516-14.813-20.634-16.353c-1.079-0.072-1.896-1.005-1.825-2.085
			c0.071-1.08,1.027-1.891,2.084-1.826C610.882,523.641,622.475,542.385,616.397,542.893z"/>
		<path style="fill:#8C4225;" d="M805.329,561.883c-0.007-0.053-0.015-0.098-0.022-0.15c-1.555-9.549-3.103-17.784-4.688-25.109
			c-0.391-1.818-0.781-3.576-1.172-5.282c-0.984-4.23-1.976-8.159-2.99-11.886c-0.346-1.292-0.699-2.555-1.052-3.802
			c-1.142-3.975-2.307-7.746-3.516-11.443c-0.008-0.023-0.015-0.045-0.023-0.068c-0.24-0.744-0.481-1.48-0.729-2.216
			c-2.427-7.273-5.034-14.38-7.896-22.322c0.315,2.69,0.902,6.018,1.645,9.805c0.969,4.891,2.201,10.549,3.501,16.634
			c2.201,10.293,4.583,21.796,6.093,32.788c0.18,1.307,0.346,2.607,0.503,3.892c0.857,7.16,1.277,14.012,0.977,20.068
			c-0.977,19.7-9.639,30.932-36.259,16.754c-38.122-20.255-79.001-11.187-113.141,4.989c-16.071,6.018-32.592,4.913-30.489-19.069
			c0.083-0.924,0.165-1.878,0.248-2.855c1.217-14.298,2.652-33.967,6.251-56.507c0.451-2.84,0.939-5.733,1.473-8.663
			c0.654-3.666,1.367-7.393,2.156-11.172c-2.427,3.779-4.433,9.504-6.251,16.409c-0.15,0.556-0.293,1.127-0.436,1.705
			c-0.308,1.195-0.601,2.419-0.894,3.667c-0.023,0.105-0.052,0.203-0.068,0.308c-0.338,1.42-0.661,2.878-0.984,4.365
			c-0.03,0.113-0.053,0.218-0.075,0.331c-0.195,0.886-0.383,1.788-0.579,2.697c-0.263,1.27-0.533,2.547-0.796,3.847
			c-0.842,4.125-1.683,8.407-2.562,12.75c-0.376,1.901-0.759,3.817-1.157,5.733c-1.57,7.618-3.268,15.289-5.259,22.51v0.007
			c-0.075,0.511-0.15,1.022-0.218,1.533c-0.526,3.719-0.887,7.348-1.089,10.887c-0.03,0.481-0.06,0.954-0.075,1.435
			c-2.427,51.766,28.317,83.569,66.409,94.974c22.87,6.867,48.385,6.371,70.97-1.57
			C781.655,654.333,811.625,619.156,805.329,561.883z M654.389,597.038c13.937-9.414,32.705-16.672,51.405-17.416
			c17.701-0.699,35.312,3.809,49.474,11.367c27.709,16.724,6.987,49.287-18.31,50.166c-19.715,0.571-16.529-26.424-31.398-26.041
			c-11.961,0.301-10.053,40.767-47.431,24.906C640.197,632.575,638.288,607.902,654.389,597.038z"/>
		<path style="fill:#C16256;" d="M695.162,599.801c-5.675,0-9.219-0.872-9.55-0.956c-2.528-0.609-1.514-4.568,0.993-3.887
			c0.175,0.043,17.591,4.248,38.088-7.259c0.969-0.541,2.188-0.198,2.73,0.767C725.151,597.535,697.79,599.959,695.162,599.801z"/>
		<path style="fill:#CE3932;" d="M761.094,713.15c0.044,0.089,0.111,0.177,0.155,0.266c-54.809,14.212-109.399,0.049-109.283,0.089
			c0,0-2.451-20.021,20.195-30.712c0,0,32.183,8.31,70.977-0.23C743.138,682.563,765.464,692.168,761.094,713.15z"/>
		<path style="fill:#C16256;" d="M752.195,507.684c-0.617,0-1.225-0.289-1.611-0.83c-9.789-13.746-28.255-9.871-28.44-9.828
			c-1.064,0.235-2.12-0.438-2.355-1.503c-0.236-1.065,0.434-2.119,1.498-2.356c0.859-0.193,21.189-4.513,32.517,11.394
			c0.633,0.889,0.426,2.123-0.464,2.756C752.993,507.565,752.592,507.684,752.195,507.684z"/>
		<path style="fill:#C16256;" d="M658.169,507.684c-0.397,0-0.797-0.119-1.145-0.367c-0.889-0.633-1.096-1.867-0.463-2.756
			c11.328-15.906,31.657-11.586,32.517-11.394c1.065,0.238,1.737,1.294,1.499,2.359c-0.237,1.065-1.293,1.735-2.357,1.499
			c-0.215-0.047-18.659-3.906-28.44,9.829C659.395,507.396,658.787,507.684,658.169,507.684z"/>
		<path style="fill:#1D3F70;" d="M785.471,715.49c0,0,17.552,152.382,8.577,227.619c0,0-85.407,16.08-188.425-4.783
			c0,0,3.305-144.958,25.353-223.487c0,0-18.569-8.045-37.041,8.177c0,0-64.697,178.604-99.311,269.473
			c0,0-18.174,69.197-30.596,161.859c-11.517,85.907-39.886,274.52-39.886,274.52h560.453c0,0-17.275-267.879-52.459-398.934
			c0,0-52.906-74.36-65.236-122.559c-12.33-48.199-33.579-142.439-48.735-185.552C818.163,721.824,798.509,709.058,785.471,715.49z"
			/>
		<path style="fill:#E8C0A6;" d="M917.735,1092.923c3.444,10.195,6.105,20.458,8.001,30.734
			c19.065,102.846-37.538,205.851-136.636,239.33c-40.313,13.619-82.015,13.829-120.484,2.986c-0.012-0.006-0.009,0.003-0.009,0.003
			c-0.012-0.006-0.012-0.006-0.012-0.006c-65.517-18.449-121.651-68.937-145.558-139.702L917.735,1092.923z"/>
		<path style="fill:#D1A68F;" d="M917.729,1092.927c0.054,3.388-0.843,6.919-2.592,10.555
			c-29.76,61.889-306.6,155.666-378.134,132.08c0,0,0,0-0.001-0.009c-6.41-2.104-11.173-5.163-13.962-9.276
			C531.969,1149.98,894.226,1042.994,917.729,1092.927z"/>
		<path style="fill:#D1A68F;" d="M925.736,1123.657c19.065,102.846-37.538,205.851-136.636,239.33
			c-40.313,13.619-82.015,13.829-120.484,2.986C670.954,1365.931,871.665,1361.945,925.736,1123.657z"/>
		<path style="fill:#FFF4EE;" d="M908.907,1114.943c-28.711,59.709-295.801,150.183-364.815,127.427c0,0,0,0-0.001-0.009
			c0.273-0.787,12.449-55.033,65.302-68.959c53.293-14.035,80.492-0.874,144.768-12.404
			C827.152,1147.906,823.017,1091.852,908.907,1114.943z"/>
		<path style="fill:#3A72AA;" d="M725.823,1108.53c23.667,9.316,41.74,22.735,52.259,38.802c5.893,8.999,9.036,18.455,9.362,27.705
			c1.697-0.69,3.376-1.399,5.036-2.126c-0.699-9.54-4.103-19.191-10.118-28.386c-11.097-16.953-29.999-31.053-54.664-40.751
			c-45.656-17.979-104.396-0.895-121.433,12.048l-61.267-24.115l-92.581-36.434c-1.231-0.494-3.338,1.912-4.69,5.362
			c-1.362,3.441-1.455,6.63-0.224,7.125l93.756,36.9l60.371,23.76c1.846,9.493,9.083,24.385,19.368,39.045
			c5.884,8.383,15.629,20.683,28.694,31.799c2.443-0.037,5.073-0.093,7.861-0.187c-14.93-11.629-25.99-25.476-32.368-34.559
			c-7.19-10.239-12.104-19.452-15.116-26.661c7.134,10.528,17.28,22.054,28.862,32.545c9.708,8.794,23.117,19.312,39.063,27.63
			c3.236-0.233,6.593-0.503,10.034-0.821c-32.666-14.687-60.306-42.42-74.033-62.796c40.77,35.818,78.947,51.699,107.007,58.59
			c4.364-0.718,8.794-1.529,13.251-2.425c-0.802-0.149-1.613-0.289-2.425-0.448c-28.209-5.371-70.471-20.394-116.034-60.95
			l141.902,55.849c2.686-0.737,5.371-1.511,8.048-2.331L616.97,1124.15c61.416,1.24,102.829,19.154,127.243,34.513
			c12.281,7.731,21.532,15.564,28.069,21.952c1.818-0.597,3.628-1.221,5.427-1.865c-6.761-6.854-16.748-15.554-30.503-24.246
			c-24.488-15.461-65.659-33.431-126.319-35.361c28.759-6.425,78.36-6.957,115.12,13.037c25.402,13.811,37.609,32.694,43.353,45.964
			c1.651-0.597,3.292-1.212,4.924-1.846c-5.977-14.044-18.772-33.907-45.833-48.612c-25.85-14.062-55.466-17.354-75.758-17.643
			c-15.62-0.224-30.894,1.296-43.288,4.131c7.125-3.217,16.981-6.602,29.225-9.195
			C665.181,1101.471,697.222,1097.275,725.823,1108.53z"/>
		<path style="fill:#1D3F70;" d="M419.512,1050.605L419.512,1050.605c2.556-6.494,9.893-9.687,16.387-7.131l101.592,39.985
			c6.495,2.556,9.687,9.893,7.131,16.388l0,0c-2.556,6.495-9.893,9.687-16.388,7.131l-101.592-39.985
			C420.148,1064.437,416.955,1057.099,419.512,1050.605z"/>
		<path style="fill:#F99370;" d="M818.885,1319.491c-30.454,0.584-10.947-64.937-10.947-64.937s37.388-3.782,37.64-3.843
			c53.483-12.814,98.31,51.024,24.436,66.055C870.015,1316.767,826.72,1319.341,818.885,1319.491z"/>
		<path style="fill:#F99370;" d="M492.916,996.969c12.771,9.563,15.371,27.669,5.809,40.439c-7,9.348-18.602,13.234-29.313,10.902
			c0,0-118.576-31.314-185.776-54.811c-41.664-14.568-88.035-72.72-79.309-112.503c8.726-39.783,55.53-46.54,107.398-26.288
			C390.569,885.493,492.916,996.969,492.916,996.969z"/>
		<path style="fill:#EB5648;" d="M834.998,1319.495c0,0,9.685-35.236-11.708-66.497c63.017-35.127,138.249-74.245,119.977-144.398
			c-22.396-85.988-87.032-176.187-125.101-386.777c0,0,123.97,16.804,217.941,135.89c60.112,76.178,98.686,172.564,97.141,261.501
			C1131.342,1228.953,1061.821,1319.495,834.998,1319.495z"/>
		<path style="fill:#EB5648;" d="M447.131,1042.311c0,0-14.531,0.135-36.514-1.463c-52.493-3.814-150.006-32.141-194.496-72.221
			c-88.204-79.461-30.474-148.939,21.906-147.64c71.682,1.778,126.342,31.83,215.774,132.675
			c7.421,8.362,15.113,17.229,23.095,26.622C476.896,980.284,443.769,1007.445,447.131,1042.311z"/>
		<path style="fill:#1D3F70;" d="M785.471,715.49c0,0,15.31,152.382,8.577,227.619l90.478,19.488
			c-32.484-61.941-42.986-192.056-66.362-240.773C818.163,721.824,798.523,709.07,785.471,715.49z"/>
		<path style="fill:#F99370;" d="M571.981,1114.795c16.159-26.736,5.075-61.47-15.53-82.7
			c-16.329-16.825-73.793-45.918-73.793-45.918l-30.307,57.557c0,0,25.534,35.111,36.06,35.866
			c-11.883,18.291,6.384,30.056,20.062,15.695c0,0-3.995,8.886,4.064,12.943c8.084,4.069,18.052-5.192,18.052-5.192
			c-5.475,13.081,13.676,17.289,23.61,4.648C551.887,1117.77,566.583,1123.837,571.981,1114.795z"/>
		<path style="fill:#E57D61;" d="M509.505,1096.697c-0.404-0.609-0.37-1.436,0.132-2.014c0.085-0.099,8.475-9.913,3.915-16.124
			c-0.556-0.749-0.383-1.787,0.361-2.331c0.743-0.544,1.787-0.382,2.33,0.361c0.101,0.137,0.197,0.275,0.289,0.414
			c5.521,8.332-3.966,19.394-4.379,19.869c-0.604,0.694-1.656,0.766-2.351,0.163C509.685,1096.934,509.586,1096.82,509.505,1096.697
			z"/>
		<path style="fill:#E57D61;" d="M530.163,1104.283c-0.442-0.667-0.35-1.575,0.254-2.139l0,0c0.399-0.374,9.727-9.267,5.045-19.065
			c-0.397-0.831-0.046-1.827,0.785-2.224c0.83-0.397,1.828-0.047,2.223,0.786c5.746,12.023-5.306,22.503-5.78,22.943
			c-0.674,0.627-1.729,0.589-2.357-0.085C530.271,1104.431,530.214,1104.359,530.163,1104.283z"/>
		<path style="fill:#E57D61;" d="M552.228,1108.411c-0.402-0.607-0.371-1.431,0.128-2.01l0,0c0.385-0.449,9.357-11.136,2.949-24.463
			c-0.399-0.83-0.05-1.826,0.78-2.225c0.831-0.399,1.833-0.048,2.225,0.78c7.374,15.336-2.986,27.575-3.431,28.089
			c-0.603,0.697-1.656,0.772-2.352,0.169C552.409,1108.649,552.31,1108.534,552.228,1108.411z"/>
		<path style="fill:#F99370;" d="M729.64,1230.093c-3.749,12.098,26.026,16.221,33.178,25.294
			c-19.09,7.046-40.367,8.624-40.444,8.737c-25.057-2.725-49.919-6.8-74.607-12c-36.342,12.167,58.394,30.201,67.357,33.664
			c-0.005,0.126-0.003,0.252-0.007,0.379c-26.26,2.686-52.717,3.936-79.102,2.951c-34.539,20.743,72.918,17.371,82.891,18.06
			c0.021,0.059,0.044,0.118,0.066,0.176c-24.272,6.707-49.38,10.449-74.559,11.476c-32.941,23.994,75.947,12.099,85.734,9.49
			c0.057,0.083,0.113,0.164,0.17,0.246c-18.297,8.044-37.617,13.752-57.071,18.429c-27.48,26.753,65.259,3.067,73.965-0.292
			c7.161,0.691,42.619-9.864,81.865-31.956c12.861-7.24,2.242-47.135-10.136-54.677c-11.606-7.071-29.435-12.127-35.825-14.134
			C771.303,1240.001,740.082,1218.988,729.64,1230.093z"/>
	</g>
	<g id="_x37_">
		<path style="fill:#8A9EDD;" d="M1496.621,1543.46c-0.004,7.303-0.574,14.48-1.681,21.498
			c-11.022,70.261-75.055,124.161-152.364,124.122c-31.449-0.016-60.694-8.954-85.055-24.295c-0.007-0.006-0.007,0-0.007,0
			c-0.007-0.006-0.007-0.006-0.007-0.006c-41.496-26.114-68.83-70.783-68.8-121.475L1496.621,1543.46z"/>
		<path style="fill:#6583CE;" d="M1496.616,1543.462c-0.77,2.19-2.24,4.27-4.31,6.22c-4.58,4.29-12.16,8.03-21.98,11.22
			c-19.65,6.39-48.28,10.59-79.88,12.64c-1.51,0.1-3.03,0.2-4.55,0.29c-13.14,0.77-26.73,1.16-40.35,1.18
			c-13.52,0.04-27.08-0.28-40.24-0.96c-3.63-0.18-7.23-0.4-10.78-0.64c-2.4-0.16-4.79-0.34-7.16-0.52
			c-34.74-2.74-65.17-8.11-82.84-16.05c-3.18-1.42-5.95-2.93-8.24-4.52c0,0,0,0,0-0.01c-3.99-2.75-6.61-5.75-7.59-9
			c2.06-3.96,5.9-7.52,11.24-10.69c13.93-8.28,38-13.93,66.62-17.26c0.36-0.04,0.72-0.08,1.08-0.12
			c24.08-2.74,51.31-3.85,78.37-3.53c0.63,0,1.27,0.01,1.9,0.02c14.99,0.22,29.91,0.88,44.19,1.95c4.25,0.31,8.45,0.67,12.56,1.06
			c32.15,3.04,59.94,8.24,76.34,15.19C1490.336,1533.892,1495.976,1538.432,1496.616,1543.462z"/>
		<path style="fill:#6583CE;" d="M1494.94,1564.957c-11.022,70.261-75.055,124.161-152.364,124.122
			c-31.449-0.016-60.694-8.954-85.055-24.295C1259.167,1665.266,1400.625,1706.373,1494.94,1564.957z"/>
		<path style="fill:#FFFEFD;" d="M1305.311,1574.047c-3.63-0.18-7.23-0.4-10.79-0.64c-37.69-2.54-71.12-8.09-90-16.57
			c-3.62-8.34-5.22-16.69-4.58-24.22c0.55-6.73,2.89-12.82,7.17-17.66c12.37-14,37.02-13.21,59.44,0.4
			c4.39,2.66,8.69,5.81,12.8,9.44c9.09,8.04,15.99,17.3,20.38,26.65C1303.341,1559.137,1305.261,1566.887,1305.311,1574.047z"/>
		<path style="fill:#E8C0A6;" d="M1345.546,1575.012c-13.52,0.04-27.08-0.28-40.24-0.96c-3.63-0.18-7.23-0.4-10.78-0.64
			c-2.4-0.16-4.79-0.34-7.16-0.52c-6.65-7.81-12.21-17.83-15.79-29.32c-3.03-9.73-4.27-19.4-3.94-28.33
			c0.74-20.43,9.72-36.98,24.56-41.59c19.54-6.08,42.44,10.64,53.81,38.06c1.04,2.53,1.99,5.14,2.83,7.84
			C1355.386,1540.612,1353.626,1561.392,1345.546,1575.012z"/>
		<ellipse style="fill:#FFFEFD;" cx="1384.923" cy="1508.272" rx="40.454" ry="60.65"/>
		<path style="fill:#D1A68F;" d="M1480.991,1529.927c-1.03,9.95-4.59,20.69-10.66,30.97c-19.65,6.39-48.29,10.59-79.88,12.64
			c-1.51,0.1-3.03,0.2-4.55,0.29c-3.22-15.35,1.55-35.33,14.12-53.08c0.04-0.06,0.08-0.11,0.12-0.17c1.45-2.03,2.96-3.98,4.52-5.84
			c19.37-23.06,46.75-32.13,63.6-20.15C1478.341,1501.757,1482.541,1514.948,1480.991,1529.927z"/>
		<path style="fill:#FFE9E1;" d="M1390.451,1573.537c-1.51,0.1-3.03,0.2-4.55,0.29c-26.18,1.52-54.17,1.58-80.59,0.22
			c-3.63-0.18-7.23-0.4-10.79-0.64c-0.37-6.99,1.47-14.54,5.21-21.96c5.63-11.24,15.59-22.2,28.84-30.55
			c6.33-3.99,12.87-7.04,19.34-9.17c16.78-5.52,33.12-4.83,44.19,1.95c3.09,1.88,5.76,4.24,7.92,7.07c0.51,0.65,0.98,1.33,1.42,2.03
			C1410.291,1536.807,1405.241,1556.837,1390.451,1573.537z"/>
	</g>
	<g id="_x36_">
		<path style="fill:#FFE9E1;" d="M955.924,1533.885l-3.164,35.445l28.157,0.852l-4.841,18.505l29.79,8.858
			c-1.305,1.03-2.659,2.013-4.059,2.976c-27.595,19.001-60.232,19.484-72.902,1.083S928.328,1552.887,955.924,1533.885z"/>
		<path style="fill:#FFE9E1;" d="M1069.302,1536.042c23.873,18.112,34.265,44.841,23.235,62.24
			c-9.385,14.803-31.467,18.449-54.203,10.685l-7.5-26.618l20.544-10.16l-4.947-25.16L1069.302,1536.042z"/>
	</g>
	<g id="_x35_">
		<path style="fill:#FFFEFD;" d="M1256.793,1756.585l3.164,35.445l-28.157,0.852l4.84,18.505l-29.79,8.858
			c1.305,1.03,2.659,2.013,4.059,2.976c27.595,19.001,60.232,19.484,72.902,1.083S1284.388,1775.586,1256.793,1756.585z"/>
		<path style="fill:#FFFEFD;" d="M1138.407,1795.487c-23.873,18.112-34.265,44.841-23.235,62.24
			c9.385,14.803,31.466,18.45,54.203,10.685l7.5-26.618l-20.544-10.16l4.947-25.16L1138.407,1795.487z"/>
	</g>
	<g id="_x34_">
		<path style="fill:#A523A2;" d="M1825.065,1588.63L1825.065,1588.63c-13.421,0-24.301-10.88-24.301-24.301v-74.808
			c0-13.421,10.88-24.301,24.301-24.301h0c13.421,0,24.301,10.88,24.301,24.301v74.808
			C1849.366,1577.75,1838.486,1588.63,1825.065,1588.63z"/>
		<path style="fill:#CE4ABF;" d="M1871.705,1597.032l0-35.604c0-16.21-13.141-29.352-29.352-29.352h-34.575
			c-16.211,0-29.352,13.141-29.352,29.352l0,35.604c-23.534,0-42.613,19.078-42.613,42.613v232.585
			c0,10.689,39.96,19.354,89.252,19.354c49.293,0,89.252-8.665,89.252-19.354v-232.585
			C1914.317,1616.111,1895.239,1597.032,1871.705,1597.032z"/>
		<ellipse style="fill:#E8C0A6;" cx="1825.065" cy="1748.523" rx="59.348" ry="82.109"/>
	</g>
	<g id="_x33_">
		<path style="fill:#FFE9E1;" d="M230.903,1323.506c0,0,25.432-48.347,89.013-49.654c63.581-1.307,95.371,57.038,95.371,57.038
			L230.903,1323.506z"/>
		<path style="fill:#FFFEFD;" d="M169.442,1335.266c0,0,5.298-28.747,57.222-40.507c51.924-11.76,132.46,6.928,162.131,36.131
			C418.466,1360.094,169.442,1335.266,169.442,1335.266z"/>
		<path style="fill:#9358E0;" d="M163.084,1330.891c0,0,2.119,60.563-30.731,131.124c-30.222,64.916-1.917,133.524,23.71,148.453
			c54.706,31.869,174.845,25.256,225.314,9.378c111.266-35.004,81.258-131.245,66.567-182.234
			c-14.691-50.99-28.419-100.37-28.419-100.37S293.424,1353.059,163.084,1330.891z"/>
		<path style="fill:#7640CC;" d="M156.726,1319.586c-20.063,3.343-19.074,65.334,0,74.481c19.074,9.147,99.61,9.147,152.594,0
			c52.984-9.147,114.156,7.84,132.315-3.92c18.159-11.76-7.273-62.721-21.049-70.561s-78.416,12.155-133.519,11.304
			C231.963,1330.04,195.934,1313.053,156.726,1319.586z"/>
	</g>
	<g id="_x32_">
		<path style="fill:#6583CE;" d="M665.865,1633.412c4.421-3.63,9.884-5.09,15.028-4.483c2.929,0.346,5.871-0.525,8.097-2.46
			l16.966-14.748c0.143,2.567,1.071,5.114,2.827,7.253h0c1.607,1.958,3.685,3.3,5.934,4.004l-23.205,17.991l-76.176,62.556
			c-1.483,1.218-3.629,1.055-4.794-0.364c-6.587-8.021,1.874-25.856,24.44-44.386L665.865,1633.412z"/>
		<path style="fill:#1D3F70;" d="M708.783,1618.973c-1.757-2.139-2.685-4.686-2.827-7.253c-0.214-3.855,1.347-7.757,4.56-10.395
			l78.688-64.619c5.352-4.395,13.253-3.619,17.648,1.733v0c4.395,5.352,3.619,13.253-1.733,17.648l-78.688,64.619
			c-3.394,2.787-7.813,3.492-11.714,2.271C712.468,1622.273,710.391,1620.931,708.783,1618.973L708.783,1618.973z"/>
	</g>
	<g id="_x31_">
		<path style="fill:#1D3F70;" d="M367.376,1576.643L367.376,1576.643c-13.421,0-24.301-10.88-24.301-24.301v-74.808
			c0-13.421,10.88-24.301,24.301-24.301h0c13.421,0,24.301,10.88,24.301,24.301v74.808
			C391.677,1565.763,380.797,1576.643,367.376,1576.643z"/>
		<path style="fill:#FFE9E1;" d="M456.627,1627.655v232.59c0,10.69-39.96,19.35-89.25,19.35s-89.25-8.66-89.25-19.35v-232.59
			c0-23.53,19.07-42.61,42.61-42.61v-35.6c0-13.79,9.52-25.37,22.34-28.51c2.25-0.56,4.59-0.85,7.01-0.85h34.58
			c2.42,0,4.76,0.29,7.01,0.85c12.82,3.14,22.34,14.72,22.34,28.51v35.6C437.547,1585.045,456.627,1604.125,456.627,1627.655z"/>
		<path style="fill:#1D3F70;" d="M456.627,1663.525v104.51c-30.1,2.79-59.06,3.95-86.38,3.95c-33.44,0-64.43-1.74-92.12-4.34
			v-104.51c4.46,0.47,9.04,0.91,13.71,1.33C334.787,1668.305,392.457,1670.195,456.627,1663.525z"/>
	</g>
</g>
</svg>
